<svg xmlns="http://www.w3.org/2000/svg" width="18" height="20.571" viewBox="0 0 18 20.571"><defs><style>.a{fill:#413f3f;}</style></defs><path class="a" d="M3.857,3.857A1.282,1.282,0,0,1,2.571,2.571c0-1.246,1.286-.924,1.286-2.571.482,0,1.286,1.185,1.286,2.25S4.57,3.857,3.857,3.857ZM9,3.857A1.282,1.282,0,0,1,7.714,2.571C7.714,1.326,9,1.647,9,0c.482,0,1.286,1.185,1.286,2.25S9.713,3.857,9,3.857Zm5.143,0a1.282,1.282,0,0,1-1.286-1.286c0-1.246,1.286-.924,1.286-2.571.482,0,1.286,1.185,1.286,2.25S14.856,3.857,14.143,3.857Zm1.929,6.429H14.786V4.5H13.5v5.786H9.643V4.5H8.357v5.786H4.5V4.5H3.214v5.786H1.929A1.929,1.929,0,0,0,0,12.214v8.357H18V12.214A1.929,1.929,0,0,0,16.071,10.286Zm.643,9H1.286V16.391c.652-.381.961-.963,1.718-.963,1.123,0,1.256,1.286,3,1.286,1.721,0,1.9-1.286,2.993-1.286,1.131,0,1.254,1.286,3,1.286s1.879-1.286,3-1.286c.743,0,1.054.582,1.708.962Zm0-4.515a2.451,2.451,0,0,0-1.708-.628c-1.745,0-1.881,1.286-3,1.286s-1.264-1.286-3-1.286c-1.721,0-1.9,1.286-2.993,1.286-1.131,0-1.254-1.286-3-1.286a2.464,2.464,0,0,0-1.718.629V12.214a.644.644,0,0,1,.643-.643H16.071a.644.644,0,0,1,.643.643Z"/></svg>