<svg xmlns="http://www.w3.org/2000/svg" width="18" height="18" viewBox="0 0 18 18"><defs><style>.a{fill:#413f3f;}</style></defs><path class="a" d="M17.143.841,13.6.022A1.1,1.1,0,0,0,12.34.658L10.706,4.473a1.1,1.1,0,0,0,.313,1.283l1.895,1.55A12.3,12.3,0,0,1,7.3,12.917l-1.55-1.895a1.1,1.1,0,0,0-1.283-.313L.658,12.344A1.1,1.1,0,0,0,.022,13.6l.816,3.54a1.1,1.1,0,0,0,1.072.854A16.08,16.08,0,0,0,17.994,1.91,1.092,1.092,0,0,0,17.143.841ZM1.931,16.869l-.809-3.5L4.9,11.75,6.99,14.309a13.584,13.584,0,0,0,7.316-7.316L11.746,4.9l1.617-3.776,3.5.809A14.95,14.95,0,0,1,1.931,16.869Z" transform="translate(0.006 0.006)"/></svg>