<svg xmlns="http://www.w3.org/2000/svg" width="18" height="18" viewBox="0 0 18 18"><defs><style>.a{fill:#413f3f;}</style></defs><path class="a" d="M12.141,6.415a.282.282,0,0,0-.4,0L7.964,10.193,6.257,8.486a.282.282,0,0,0-.4,0l-.4.4a.281.281,0,0,0,0,.4l2.3,2.3a.281.281,0,0,0,.4,0L12.538,7.21a.281.281,0,0,0,0-.4l-.4-.4ZM18,9a3.48,3.48,0,0,0-1.744-3.006,3.463,3.463,0,0,0-4.25-4.25,3.463,3.463,0,0,0-6.012,0,3.463,3.463,0,0,0-4.25,4.25,3.463,3.463,0,0,0,0,6.012,3.463,3.463,0,0,0,4.25,4.25,3.463,3.463,0,0,0,6.012,0,3.463,3.463,0,0,0,4.25-4.25A3.48,3.48,0,0,0,18,9Zm-3.2,2.4a2.586,2.586,0,0,1-.229,3.168c-1.016,1.016-2.021.749-3.168.229A2.582,2.582,0,0,1,9,16.875,2.584,2.584,0,0,1,6.6,14.8c-1.146.52-2.155.78-3.168-.229A2.58,2.58,0,0,1,3.2,11.4,2.582,2.582,0,0,1,1.125,9,2.584,2.584,0,0,1,3.2,6.6a2.586,2.586,0,0,1,.229-3.168A2.584,2.584,0,0,1,6.6,3.2,2.582,2.582,0,0,1,9,1.125,2.584,2.584,0,0,1,11.4,3.2a2.586,2.586,0,0,1,3.168.229A2.58,2.58,0,0,1,14.8,6.6,2.582,2.582,0,0,1,16.875,9,2.584,2.584,0,0,1,14.8,11.4Z"/></svg>