<svg xmlns="http://www.w3.org/2000/svg" width="18" height="18" viewBox="0 0 18 18"><defs><style>.a{fill:#413f3f;}</style></defs><path class="a" d="M9,8a9,9,0,1,0,9,9A9,9,0,0,0,9,8Zm4.645,15.3a7.781,7.781,0,0,1-9.29,0v-.494a2.325,2.325,0,0,1,2.323-2.323A10.557,10.557,0,0,0,9,20.9a10.557,10.557,0,0,0,2.323-.414,2.325,2.325,0,0,1,2.323,2.323Zm1.11-1a3.473,3.473,0,0,0-3.433-2.979c-.744,0-1.1.414-2.323.414s-1.575-.414-2.323-.414A3.473,3.473,0,0,0,3.244,22.3a7.839,7.839,0,1,1,11.511,0ZM9,12.065a3.194,3.194,0,1,0,3.194,3.194A3.194,3.194,0,0,0,9,12.065ZM9,17.29a2.032,2.032,0,1,1,2.032-2.032A2.034,2.034,0,0,1,9,17.29Z" transform="translate(0 -8)"/></svg>